<svg width="35" height="32" viewBox="0 0 35 32" fill="none" xmlns="http://www.w3.org/2000/svg">
<rect x="34.5" width="32" height="34" rx="16" transform="rotate(90 34.5 0)" fill="black"/>
<path d="M25.864 16.707C26.0514 16.5195 26.1567 16.2652 26.1567 16C26.1567 15.7348 26.0514 15.4805 25.864 15.293L20.207 9.63601C20.1147 9.5405 20.0044 9.46431 19.8824 9.41191C19.7604 9.3595 19.6291 9.33191 19.4964 9.33076C19.3636 9.3296 19.2319 9.3549 19.109 9.40519C18.9861 9.45547 18.8744 9.52972 18.7806 9.62361C18.6867 9.7175 18.6124 9.82916 18.5621 9.95205C18.5118 10.0749 18.4865 10.2066 18.4877 10.3394C18.4889 10.4722 18.5164 10.6034 18.5688 10.7254C18.6213 10.8474 18.6974 10.9578 18.793 11.05L22.743 15L9.49995 15C9.23474 15 8.98038 15.1054 8.79284 15.2929C8.60531 15.4804 8.49995 15.7348 8.49995 16C8.49995 16.2652 8.60531 16.5196 8.79284 16.7071C8.98038 16.8946 9.23474 17 9.49995 17L22.743 17L18.793 20.95C18.6108 21.1386 18.51 21.3912 18.5123 21.6534C18.5146 21.9156 18.6197 22.1664 18.8051 22.3518C18.9905 22.5372 19.2414 22.6424 19.5036 22.6447C19.7657 22.647 20.0183 22.5462 20.207 22.364L25.864 16.707Z" fill="white"/>
</svg>
