<svg width="46" height="48" viewBox="0 0 46 48" fill="none" xmlns="http://www.w3.org/2000/svg">
<path fill-rule="evenodd" clip-rule="evenodd" d="M13.8285 2.54167C14.5402 1.04208 16.0754 0 17.8495 0H28.0161C29.7902 0 31.3228 1.04208 32.037 2.54167C33.773 2.55692 35.1277 2.63571 36.3375 3.10846C37.7818 3.6734 39.0378 4.63349 39.962 5.87888C40.8947 7.13446 41.3345 8.74333 41.9343 10.9571L43.8202 17.8755L44.5319 20.0131L44.5929 20.0893C46.8829 23.0224 45.7925 27.3839 43.6118 36.1044C42.224 41.6528 41.5327 44.4258 39.4638 46.0423C37.3949 47.6562 34.5355 47.6562 28.8167 47.6562H17.0488C11.3301 47.6562 8.47071 47.6562 6.40179 46.0423C4.33287 44.4258 3.639 41.6528 2.25379 36.1044C0.073042 27.3839 -1.01733 23.0224 1.27271 20.0893L1.33371 20.0131L2.04538 17.8755L3.93129 10.9571C4.53367 8.74333 4.97338 7.13192 5.90363 5.87633C6.8281 4.63188 8.08411 3.6727 9.52804 3.10846C10.7379 2.63571 12.09 2.55438 13.8285 2.54167ZM13.8336 6.36179C12.151 6.37958 11.475 6.44312 10.9158 6.66171C10.138 6.9659 9.46148 7.48294 8.96379 8.15367C8.51646 8.75604 8.25212 9.59733 7.51504 12.3093L6.06629 17.6188C8.65879 17.1562 12.2019 17.1562 17.0463 17.1562H28.8167C33.6637 17.1562 37.2042 17.1563 39.7967 17.6138L38.3505 12.3042C37.6135 9.59225 37.3491 8.75096 36.9018 8.14858C36.4041 7.47786 35.7276 6.96081 34.9498 6.65663C34.3906 6.43804 33.7145 6.3745 32.032 6.35671C31.6711 7.11628 31.1023 7.75798 30.3915 8.20739C29.6807 8.65681 28.8571 8.89551 28.0161 8.89583H17.8495C17.0088 8.89574 16.1854 8.65741 15.4746 8.20847C14.7638 7.75952 14.1949 7.12089 13.8336 6.36179Z" fill="#D0F348"/>
</svg>
