<svg width="46" height="48" viewBox="0 0 46 48" fill="none" xmlns="http://www.w3.org/2000/svg">
<path d="M43 47.5H9.25C6.92936 47.5 4.70376 46.6334 3.06282 45.091C1.42187 43.5485 0.5 41.4564 0.5 39.275V7.55C0.5 5.68022 1.29018 3.88703 2.6967 2.5649C4.10322 1.24277 6.01088 0.5 8 0.5H43C43.663 0.5 44.2989 0.747588 44.7678 1.1883C45.2366 1.62901 45.5 2.22674 45.5 2.85V45.15C45.5 45.7733 45.2366 46.371 44.7678 46.8117C44.2989 47.2524 43.663 47.5 43 47.5ZM40.5 42.8V35.75H9.25C8.25544 35.75 7.30161 36.1214 6.59835 36.7824C5.89509 37.4435 5.5 38.3401 5.5 39.275C5.5 40.2099 5.89509 41.1065 6.59835 41.7675C7.30161 42.4286 8.25544 42.8 9.25 42.8H40.5Z" fill="#D0F348"/>
</svg>
