<svg width="40" height="40" viewBox="0 0 40 40" fill="none" xmlns="http://www.w3.org/2000/svg">
<path d="M13.8335 22C13.8335 21.6022 13.6755 21.2206 13.3942 20.9393C13.1129 20.658 12.7313 20.5 12.3335 20.5C11.9357 20.5 11.5541 20.658 11.2728 20.9393C10.9915 21.2206 10.8335 21.6022 10.8335 22V30C10.8335 30.3978 10.9915 30.7794 11.2728 31.0607C11.5541 31.342 11.9357 31.5 12.3335 31.5C12.7313 31.5 13.1129 31.342 13.3942 31.0607C13.6755 30.7794 13.8335 30.3978 13.8335 30V22ZM28.3335 20.5C28.7313 20.5 29.1129 20.658 29.3942 20.9393C29.6755 21.2206 29.8335 21.6022 29.8335 22V30C29.8335 30.3978 29.6755 30.7794 29.3942 31.0607C29.1129 31.342 28.7313 31.5 28.3335 31.5C27.9357 31.5 27.5541 31.342 27.2728 31.0607C26.9915 30.7794 26.8335 30.3978 26.8335 30V22C26.8335 21.6022 26.9915 21.2206 27.2728 20.9393C27.5541 20.658 27.9357 20.5 28.3335 20.5ZM21.8335 22C21.8335 21.6022 21.6755 21.2206 21.3942 20.9393C21.1129 20.658 20.7313 20.5 20.3335 20.5C19.9357 20.5 19.5541 20.658 19.2728 20.9393C18.9915 21.2206 18.8335 21.6022 18.8335 22V30C18.8335 30.3978 18.9915 30.7794 19.2728 31.0607C19.5541 31.342 19.9357 31.5 20.3335 31.5C20.7313 31.5 21.1129 31.342 21.3942 31.0607C21.6755 30.7794 21.8335 30.3978 21.8335 30V22Z" fill="white"/>
<path fill-rule="evenodd" clip-rule="evenodd" d="M30.8813 2.946C29.9293 2.574 28.8633 2.512 27.4972 2.502C27.2136 1.90294 26.7656 1.39676 26.2055 1.04234C25.6453 0.687929 24.9961 0.499854 24.3333 0.5H16.3333C15.6706 0.499674 15.0215 0.687452 14.4614 1.0415C13.9013 1.39555 13.4532 1.90132 13.1693 2.5C11.8013 2.512 10.7373 2.574 9.78525 2.946C8.6488 3.39054 7.66044 4.14602 6.93325 5.126C6.19925 6.112 5.85325 7.38 5.38125 9.122L4.12525 13.728C3.33848 14.125 2.64881 14.6904 2.10525 15.384C0.861254 16.978 0.641254 18.876 0.863254 21.052C1.07725 23.164 1.74325 25.824 2.57525 29.152L2.62725 29.366C3.15525 31.47 3.58125 33.18 4.08925 34.514C4.61925 35.906 5.29325 37.046 6.40125 37.912C7.51125 38.778 8.78125 39.152 10.2593 39.332C11.6753 39.5 13.4393 39.5 15.6093 39.5H25.0573C27.2273 39.5 28.9893 39.5 30.4073 39.33C31.8873 39.154 33.1553 38.778 34.2633 37.91C35.3733 37.046 36.0453 35.906 36.5753 34.514C37.0853 33.18 37.5112 31.47 38.0373 29.364L38.0913 29.154C38.9233 25.824 39.5873 23.164 39.8033 21.054C40.0233 18.874 39.8033 16.978 38.5593 15.384C38.0163 14.6906 37.3273 14.1252 36.5413 13.728L35.2853 9.122C34.8113 7.38 34.4653 6.112 33.7333 5.124C33.0058 4.14476 32.0175 3.38999 30.8813 2.946ZM10.8773 5.74C11.3173 5.568 11.8493 5.518 13.1713 5.504C13.7353 6.684 14.9393 7.5 16.3313 7.5H24.3313C25.7273 7.5 26.9313 6.684 27.4953 5.504C28.8173 5.518 29.3493 5.568 29.7893 5.74C30.4013 5.98 30.9333 6.386 31.3253 6.914C31.6772 7.388 31.8832 8.05 32.4653 10.184L33.1733 12.778C31.0973 12.5 28.4172 12.5 25.0872 12.5H15.5773C12.2493 12.5 9.56925 12.5 7.49325 12.778L8.20125 10.184C8.78125 8.05 8.98925 7.388 9.34125 6.914C9.73288 6.38622 10.2652 5.97936 10.8773 5.74ZM16.3333 3.5C16.2006 3.5 16.0735 3.55268 15.9797 3.64645C15.8859 3.74022 15.8333 3.86739 15.8333 4C15.8333 4.13261 15.8859 4.25979 15.9797 4.35355C16.0735 4.44732 16.2006 4.5 16.3333 4.5H24.3333C24.4659 4.5 24.593 4.44732 24.6868 4.35355C24.7806 4.25979 24.8333 4.13261 24.8333 4C24.8333 3.86739 24.7806 3.74022 24.6868 3.64645C24.593 3.55268 24.4659 3.5 24.3333 3.5H16.3333ZM4.47125 17.23C5.02925 16.516 5.91125 16.036 7.73125 15.772C9.59325 15.504 12.1173 15.5 15.7033 15.5H24.9632C28.5492 15.5 31.0713 15.504 32.9333 15.772C34.7552 16.036 35.6373 16.516 36.1953 17.232C36.7533 17.946 37.0053 18.916 36.8173 20.748C36.6273 22.62 36.0193 25.068 35.1493 28.548C34.5953 30.764 34.2093 32.3 33.7733 33.448C33.3493 34.556 32.9352 35.142 32.4172 35.548C31.8993 35.952 31.2292 36.21 30.0512 36.352C28.8312 36.498 27.2512 36.5 24.9632 36.5H15.7033C13.4153 36.5 11.8333 36.498 10.6153 36.352C9.43525 36.212 8.76725 35.952 8.24925 35.548C7.72925 35.142 7.31525 34.556 6.89325 33.448C6.45725 32.3 6.07125 30.764 5.51525 28.548C4.64725 25.068 4.03725 22.62 3.84725 20.748C3.66125 18.916 3.91325 17.944 4.47125 17.23Z" fill="white"/>
</svg>
