<svg width="91" height="90" viewBox="0 0 91 90" fill="none" xmlns="http://www.w3.org/2000/svg">
<g clip-path="url(#clip0_119_502)">
<path d="M26.6 54.9V27H9.5C4.55 27 0.5 31.05 0.5 36V63C0.5 67.95 4.55 72 9.5 72H14V85.5L27.5 72H50C54.95 72 59 67.95 59 63V54.81C58.7039 54.8717 58.4024 54.9033 58.1 54.9045H26.6V54.9ZM81.5 4.5H41C36.05 4.5 32 8.55 32 13.5V49.5H63.5L77 63V49.5H81.5C86.45 49.5 90.5 45.4545 90.5 40.5V13.5C90.5 8.55 86.45 4.5 81.5 4.5Z" fill="#D0F348"/>
</g>
<defs>
<clipPath id="clip0_119_502">
<rect width="90" height="90" fill="white" transform="translate(0.5)"/>
</clipPath>
</defs>
</svg>
