<svg width="48" height="50" viewBox="0 0 48 50" fill="none" xmlns="http://www.w3.org/2000/svg">
<path opacity="0.987" fill-rule="evenodd" clip-rule="evenodd" d="M21.2314 0.713479C23.7689 0.429979 25.2704 0.429979 27.9969 0.713479C32.8231 1.42781 37.2971 3.65868 40.7719 7.08348C38.4238 9.30295 36.1066 11.5548 33.8209 13.8385C29.4435 10.1285 24.5575 9.27215 19.1629 11.2695C15.2055 13.0895 12.4499 16.0388 10.8959 20.1175C8.35641 18.2269 5.85003 16.2923 3.37787 14.3145C3.20607 14.224 3.00984 14.1909 2.81787 14.22C6.74487 6.64831 12.8815 2.14498 21.2279 0.709979" fill="#F44336"/>
<path opacity="0.997" fill-rule="evenodd" clip-rule="evenodd" d="M2.81091 14.22C3.00924 14.1897 3.19707 14.2212 3.37441 14.3145C5.84657 16.2923 8.35295 18.2269 10.8924 20.1175C10.4928 21.7067 10.2409 23.3295 10.1399 24.965C10.2262 26.547 10.4771 28.0999 10.8924 29.6235L2.99991 35.906C-0.437094 28.724 -0.500094 21.4954 2.81091 14.22Z" fill="#FFC107"/>
<path opacity="0.999" fill-rule="evenodd" clip-rule="evenodd" d="M40.3975 43.515C37.94 41.3477 35.3673 39.3147 32.6905 37.425C35.3738 35.5303 37.0025 32.931 37.5765 29.627H24.427V20.4955C32.0103 20.4325 39.5902 20.4966 47.1665 20.688C48.6038 28.493 46.9437 35.5303 42.186 41.8C41.6203 42.4013 41.021 42.9737 40.3975 43.515Z" fill="#448AFF"/>
<path opacity="0.993" fill-rule="evenodd" clip-rule="evenodd" d="M10.8925 29.627C13.7625 36.76 19.0242 40.0896 26.6775 39.616C28.8259 39.3673 30.8857 38.6167 32.6905 37.425C35.3692 39.3196 37.9382 41.3496 40.3975 43.515C36.5008 47.0165 31.5324 49.0942 26.303 49.409C25.1149 49.5039 23.9211 49.5039 22.733 49.409C13.8243 48.359 7.24667 43.858 3 35.906L10.8925 29.627Z" fill="#43A047"/>
</svg>
