<svg width="39" height="37" viewBox="0 0 39 37" fill="none" xmlns="http://www.w3.org/2000/svg">
<path d="M27.6669 18.5C32.6119 18.5 36.6252 14.4867 36.6252 9.54168C36.6252 4.59668 32.6119 0.583344 27.6669 0.583344C22.7219 0.583344 18.7085 4.59668 18.7085 9.54168C18.7085 14.4867 22.7219 18.5 27.6669 18.5ZM37.4314 28.5333C36.7327 27.8167 35.8548 27.4583 34.8335 27.4583H22.2919L18.5652 26.1504L19.1564 24.4663L22.2919 25.6667H27.3085C27.9356 25.6667 28.4373 25.4158 28.8494 25.0038C29.2614 24.5917 29.4585 24.09 29.4585 23.5346C29.4585 22.5671 28.9927 21.9042 28.061 21.5279L15.0356 16.7083H11.5419V32.8333L24.0835 36.4167L38.4706 31.0417C38.4885 30.0921 38.1302 29.25 37.4314 28.5333ZM7.95852 16.7083H0.763184V36.4167H7.95852V16.7083Z" fill="black"/>
</svg>
