<svg width="36" height="38" viewBox="0 0 36 38" fill="none" xmlns="http://www.w3.org/2000/svg">
<path fill-rule="evenodd" clip-rule="evenodd" d="M29.2198 0.0120138C29.5185 0.0449185 29.806 0.144717 30.0608 0.303993C30.3156 0.463268 30.5313 0.677926 30.6918 0.932014C37.0918 11.066 36.1258 21.824 30.7798 28.6C28.1098 31.982 24.3598 34.342 19.9858 35.04C16.1698 35.646 11.9998 34.968 7.79779 32.768C7.41179 33.986 7.13779 35.168 6.97979 36.282C6.90293 36.8053 6.6219 37.2769 6.19821 37.5935C5.77451 37.9101 5.24265 38.046 4.71902 37.9714C4.19538 37.8968 3.7226 37.6179 3.40415 37.1955C3.08569 36.7732 2.94749 36.242 3.01979 35.718C3.29761 33.8621 3.76815 32.0403 4.42379 30.282C1.34979 26.902 0.509789 22.626 0.883789 18.806C1.29579 14.592 3.21779 10.55 5.71979 8.46401C9.06379 5.67801 12.5758 4.53401 15.6238 3.97401C16.9558 3.74348 18.297 3.56933 19.6438 3.45201C20.6018 3.35601 21.5798 3.29201 22.5158 3.06001C23.9012 2.72501 25.2254 2.17428 26.4398 1.42801C27.3238 0.876014 28.0778 -0.115986 29.2198 0.0120138ZM9.29979 29.036C11.5238 24.502 15.1598 20.156 19.8938 17.788C20.1308 17.6719 20.3425 17.5099 20.5167 17.3116C20.6908 17.1132 20.824 16.8824 20.9085 16.6323C20.993 16.3822 21.0271 16.1179 21.009 15.8546C20.9909 15.5913 20.9208 15.3341 20.8028 15.098C20.6848 14.8619 20.5212 14.6515 20.3215 14.4789C20.1218 14.3063 19.8899 14.1749 19.6392 14.0924C19.3885 14.0098 19.1239 13.9777 18.8607 13.9979C18.5976 14.0181 18.341 14.0902 18.1058 14.21C12.8898 16.818 8.89379 21.328 6.29579 26.138C6.81218 26.9794 7.45274 27.738 8.19579 28.388C8.56646 28.6187 8.93312 28.8347 9.29979 29.036Z" fill="black"/>
</svg>
