<svg width="42" height="38" viewBox="0 0 42 38" fill="none" xmlns="http://www.w3.org/2000/svg">
<path d="M13.7935 19.0514C12.1409 17.11 18.4695 12.6268 16.1863 11.6086C12.8525 11.6549 9.29743 14.691 6.86685 18.5114C3.91554 23.1503 3.66032 29.1388 6.86676 30.7877C10.2306 31.7462 14.2135 26.8953 16.8555 22.4973C19.0204 18.8934 19.2983 15.0587 18.3127 13.2877C17.5833 11.977 16.4643 18.7096 13.7935 19.0514Z" fill="#77AB34" stroke="#5F8830" stroke-width="0.5"/>
<path d="M28.3127 8.28767C28.8127 10.7877 21.1027 11.6277 22.6027 13.6277C25.5382 15.2084 30.1211 14.2842 34.1027 12.1278C38.9373 9.50937 42.3127 5.28769 40.3127 2.28767C37.8395 -0.185603 31.7599 1.22939 27.3127 3.78768C23.6685 5.88407 21.3127 8.76092 21.3127 10.7876C21.3127 12.2877 25.8127 7.28768 28.3127 8.28767Z" fill="#77AB34" stroke="#5F8830" stroke-width="0.5"/>
<path d="M27.8127 23.7899C25.4788 24.816 23.0048 17.3686 21.3743 19.2637C20.462 22.4705 22.3504 26.7473 25.3128 30.1718C28.9099 34.3301 34.2501 36.7184 36.7497 34.1199C38.633 31.1725 35.9434 25.5396 32.4884 21.7469C29.6572 18.6389 25.8448 17.0556 23.8656 17.4915C22.4007 17.8142 28.2516 21.1333 27.8127 23.7899Z" fill="#77AB34" stroke="#5F8830" stroke-width="0.5"/>
</svg>
