<svg width="20" height="20" viewBox="0 0 20 20" fill="none" xmlns="http://www.w3.org/2000/svg">
<path d="M11.2496 1.00041C11.2496 0.801494 11.3286 0.610729 11.4693 0.470076C11.6099 0.329424 11.8007 0.250406 11.9996 0.250406C14.055 0.250406 16.0263 1.06692 17.4797 2.52033C18.9331 3.97374 19.7496 5.94498 19.7496 8.00041C19.7496 8.19932 19.6706 8.39008 19.53 8.53074C19.3893 8.67139 19.1985 8.75041 18.9996 8.75041C18.8007 8.75041 18.6099 8.67139 18.4693 8.53074C18.3286 8.39008 18.2496 8.19932 18.2496 8.00041C18.2496 6.3428 17.5911 4.75309 16.419 3.58099C15.2469 2.40889 13.6572 1.75041 11.9996 1.75041C11.8007 1.75041 11.6099 1.67139 11.4693 1.53074C11.3286 1.39008 11.2496 1.19932 11.2496 1.00041ZM11.2496 5.00041C11.2496 4.80149 11.3286 4.61073 11.4693 4.47008C11.6099 4.32942 11.8007 4.25041 11.9996 4.25041C12.9942 4.25041 13.948 4.64549 14.6513 5.34876C15.3545 6.05202 15.7496 7.00584 15.7496 8.00041C15.7496 8.19932 15.6706 8.39008 15.53 8.53074C15.3893 8.67139 15.1985 8.75041 14.9996 8.75041C14.8007 8.75041 14.6099 8.67139 14.4693 8.53074C14.3286 8.39008 14.2496 8.19932 14.2496 8.00041C14.2496 7.40367 14.0126 6.83137 13.5906 6.40942C13.1687 5.98746 12.5964 5.75041 11.9996 5.75041C11.8007 5.75041 11.6099 5.67139 11.4693 5.53074C11.3286 5.39008 11.2496 5.19932 11.2496 5.00041ZM7.00362 1.41641C6.43162 0.606406 5.63962 0.241406 4.79962 0.250406C4.00262 0.258406 3.22662 0.599406 2.57862 1.05341C1.91768 1.51873 1.3541 2.1088 0.91962 2.79041C0.50962 3.43941 0.21362 4.20641 0.25362 4.95541C0.44662 8.55841 2.47362 12.4084 5.32062 15.2574C8.16562 18.1034 11.9646 20.0814 15.8006 19.7034C16.5526 19.6294 17.2636 19.2464 17.8446 18.7584C18.4456 18.2494 18.9365 17.6233 19.2876 16.9184C19.6276 16.2264 19.8306 15.4284 19.7186 14.6514C19.6026 13.8414 19.1496 13.1174 18.3166 12.6374C18.144 12.5373 17.9733 12.4339 17.8046 12.3274C17.6546 12.2344 17.4946 12.1334 17.3006 12.0174C16.9044 11.7731 16.4862 11.5662 16.0516 11.3994C15.6046 11.2364 15.0936 11.1294 14.5616 11.2024C14.0106 11.2784 13.4986 11.5384 13.0556 12.0044C12.7146 12.3644 12.2126 12.4764 11.5066 12.2724C10.7886 12.0644 9.98062 11.5484 9.27862 10.8504C8.57662 10.1544 8.04562 9.34041 7.81862 8.60541C7.59462 7.87741 7.69362 7.34241 8.04362 6.97341C8.51662 6.47541 8.76862 5.92141 8.82162 5.33541C8.87362 4.76541 8.73162 4.22941 8.52862 3.76141C8.22462 3.06241 7.70862 2.36741 7.30462 1.82541C7.20305 1.6899 7.10304 1.55322 7.00462 1.41541" fill="#0A3917"/>
</svg>
