<svg width="42" height="42" viewBox="0 0 42 42" fill="none" xmlns="http://www.w3.org/2000/svg">
<path fill-rule="evenodd" clip-rule="evenodd" d="M4.42087 0.75C3.99562 0.75 3.6165 1.04475 3.47025 1.488L0.87375 9.37537C0.791766 9.62481 0.749994 9.88569 0.75 10.1483V13.2859C0.75 15.06 2.04488 16.5 3.64237 16.5C5.23987 16.5 6.53587 15.06 6.53587 13.2859C6.53587 15.0611 7.83075 16.5 9.42825 16.5C11.0257 16.5 12.3217 15.06 12.3217 13.2859C12.3217 15.0611 13.6166 16.5 15.2141 16.5C16.8116 16.5 18.1054 15.0623 18.1076 13.2881C18.1076 15.0623 19.4025 16.5 21 16.5C22.5975 16.5 23.8924 15.06 23.8924 13.2859C23.8924 15.0611 25.1884 16.5 26.7859 16.5C28.3834 16.5 29.6771 15.0623 29.6783 13.2881C29.6794 15.0623 30.9742 16.5 32.5717 16.5C34.1693 16.5 35.4641 15.06 35.4641 13.2859C35.4641 15.0611 36.759 16.5 38.3576 16.5C39.9551 16.5 41.25 15.06 41.25 13.2859V10.1483C41.25 9.88569 41.2082 9.62481 41.1263 9.37537L38.5298 1.48913C38.3835 1.04475 38.0044 0.75 37.5791 0.75H4.42087Z" fill="white"/>
<path fill-rule="evenodd" clip-rule="evenodd" d="M5.25 17.8837V26.625H2.4375C2.28832 26.625 2.14524 26.6843 2.03975 26.7898C1.93426 26.8952 1.875 27.0383 1.875 27.1875V28.3125C1.875 28.4617 1.93426 28.6048 2.03975 28.7102C2.14524 28.8157 2.28832 28.875 2.4375 28.875H39.5625C39.7117 28.875 39.8548 28.8157 39.9602 28.7102C40.0657 28.6048 40.125 28.4617 40.125 28.3125V27.1875C40.125 27.0383 40.0657 26.8952 39.9602 26.7898C39.8548 26.6843 39.7117 26.625 39.5625 26.625H36.75V17.8837C36.2789 17.6964 35.8438 17.4288 35.4641 17.0929C35.1721 17.3496 34.848 17.5674 34.5 17.7409V26.625H7.5V17.7409C7.15198 17.5674 6.8279 17.3496 6.53587 17.0929C6.15787 17.4248 5.72587 17.6947 5.25 17.8837ZM34.5 15.6821C34.5952 15.5869 34.6853 15.4845 34.77 15.375H34.5V15.6821ZM36.1582 15.375C36.3288 15.5949 36.5278 15.7912 36.75 15.9589V15.375H36.1582ZM5.25 15.9589C5.47404 15.7934 5.6733 15.5968 5.84175 15.375H5.25V15.9589ZM7.23 15.375H7.5V15.6821C7.40387 15.5853 7.31371 15.4827 7.23 15.375ZM3.5625 31.125C3.41332 31.125 3.27024 31.1843 3.16475 31.2898C3.05926 31.3952 3 31.5383 3 31.6875V40.125C3 40.4234 3.11853 40.7095 3.32951 40.9205C3.54048 41.1315 3.82663 41.25 4.125 41.25H37.875C38.1734 41.25 38.4595 41.1315 38.6705 40.9205C38.8815 40.7095 39 40.4234 39 40.125V31.6875C39 31.5383 38.9407 31.3952 38.8352 31.2898C38.7298 31.1843 38.5867 31.125 38.4375 31.125H3.5625Z" fill="white"/>
<path d="M9.75 23.8125C9.75 23.6633 9.80926 23.5202 9.91475 23.4148C10.0202 23.3093 10.1633 23.25 10.3125 23.25H13.6875C13.8367 23.25 13.9798 23.3093 14.0852 23.4148C14.1907 23.5202 14.25 23.6633 14.25 23.8125V26.0625C14.25 26.2117 14.1907 26.3548 14.0852 26.4602C13.9798 26.5657 13.8367 26.625 13.6875 26.625H10.3125C10.1633 26.625 10.0202 26.5657 9.91475 26.4602C9.80926 26.3548 9.75 26.2117 9.75 26.0625V23.8125Z" fill="white"/>
<path d="M12 24.9375C12 24.7883 12.0593 24.6452 12.1648 24.5398C12.2702 24.4343 12.4133 24.375 12.5625 24.375H15.9375C16.0867 24.375 16.2298 24.4343 16.3352 24.5398C16.4407 24.6452 16.5 24.7883 16.5 24.9375V26.0625C16.5 26.2117 16.4407 26.3548 16.3352 26.4602C16.2298 26.5657 16.0867 26.625 15.9375 26.625H12.5625C12.4133 26.625 12.2702 26.5657 12.1648 26.4602C12.0593 26.3548 12 26.2117 12 26.0625V24.9375ZM21 24.9375C21 25.3851 20.8222 25.8143 20.5057 26.1307C20.1893 26.4472 19.7601 26.625 19.3125 26.625C18.8649 26.625 18.4357 26.4472 18.1193 26.1307C17.8028 25.8143 17.625 25.3851 17.625 24.9375C17.625 24.4899 17.8028 24.0607 18.1193 23.7443C18.4357 23.4278 18.8649 23.25 19.3125 23.25C19.7601 23.25 20.1893 23.4278 20.5057 23.7443C20.8222 24.0607 21 24.4899 21 24.9375Z" fill="white"/>
</svg>
