<svg width="48" height="48" viewBox="0 0 48 48" fill="none" xmlns="http://www.w3.org/2000/svg">
<path fill-rule="evenodd" clip-rule="evenodd" d="M3.5136 3.5136C0 7.032 0 12.6864 0 24C0 35.3136 0 40.9704 3.5136 44.484C7.032 48 12.6864 48 24 48C35.3136 48 40.9704 48 44.484 44.484C48 40.9728 48 35.3136 48 24C48 12.6864 48 7.0296 44.484 3.5136C40.9728 0 35.3136 0 24 0C12.6864 0 7.0296 0 3.5136 3.5136ZM37.3824 20.352C37.6745 19.9839 37.811 19.5162 37.7629 19.0487C37.7147 18.5813 37.4857 18.1512 37.1247 17.8504C36.7637 17.5496 36.2994 17.4018 35.8309 17.4388C35.3624 17.4757 34.927 17.6943 34.6176 18.048L30.3048 23.2224C29.4168 24.2904 28.8672 24.9408 28.4184 25.3464C28.301 25.4603 28.1695 25.5587 28.0272 25.6392L28.0008 25.6512L27.9816 25.6416L27.9744 25.6392C27.8312 25.5588 27.6989 25.4604 27.5808 25.3464C27.132 24.9384 26.5848 24.2904 25.6944 23.2224L24.9936 22.3824C24.2064 21.4344 23.4936 20.5824 22.8312 19.9824C22.1088 19.3296 21.1992 18.7488 19.9992 18.7488C18.7992 18.7488 17.892 19.3296 17.1672 19.9824C16.5048 20.5824 15.7944 21.4344 15.0072 22.3824L10.6152 27.648C10.4639 27.8297 10.3499 28.0394 10.2797 28.2652C10.2094 28.4909 10.1844 28.7283 10.2059 28.9638C10.2493 29.4393 10.4798 29.8781 10.8468 30.1836C11.2138 30.4891 11.687 30.6364 12.1626 30.5929C12.6381 30.5495 13.0769 30.319 13.3824 29.952L17.6952 24.7776C18.5832 23.7096 19.1328 23.0592 19.5816 22.6536C19.699 22.5397 19.8305 22.4413 19.9728 22.3608L19.9896 22.3536L19.9992 22.3488L20.0256 22.3608C20.1688 22.4412 20.3011 22.5396 20.4192 22.6536C20.868 23.0616 21.4152 23.7096 22.3056 24.7776L23.0064 25.6176C23.796 26.5656 24.5064 27.4176 25.1688 28.0176C25.8912 28.6704 26.8008 29.2512 28.0008 29.2512C29.2008 29.2512 30.108 28.6704 30.8328 28.0176C31.4952 27.4176 32.2056 26.5656 32.9928 25.6176L37.3824 20.352Z" fill="#D0F348"/>
</svg>
