<svg width="41" height="40" viewBox="0 0 41 40" fill="none" xmlns="http://www.w3.org/2000/svg">
<path fill-rule="evenodd" clip-rule="evenodd" d="M3.55292 3.46872C0.604004 6.3373 0.604004 10.9474 0.604004 20.1714C0.604004 29.3955 0.604004 34.0075 3.55292 36.8721C6.50586 39.7388 11.2515 39.7388 20.7469 39.7388C30.2422 39.7388 34.9899 39.7388 37.9388 36.8721C40.8897 34.0094 40.8897 29.3955 40.8897 20.1714C40.8897 10.9474 40.8897 6.33534 37.9388 3.46872C34.9919 0.604065 30.2422 0.604065 20.7469 0.604065C11.2515 0.604065 6.50385 0.604065 3.55292 3.46872ZM31.9785 17.1972C32.2237 16.8971 32.3383 16.5157 32.2978 16.1346C32.2574 15.7535 32.0652 15.4029 31.7622 15.1576C31.4592 14.9123 31.0695 14.7919 30.6764 14.822C30.2832 14.8521 29.9177 15.0304 29.6581 15.3187L26.0384 19.5374C25.2931 20.4082 24.8318 20.9385 24.4552 21.2691C24.3566 21.362 24.2463 21.4422 24.1268 21.5079L24.1047 21.5176L24.0886 21.5098L24.0825 21.5079C23.9623 21.4423 23.8513 21.3621 23.7522 21.2691C23.3755 20.9365 22.9162 20.4082 22.1689 19.5374L21.5808 18.8526C20.9201 18.0797 20.3218 17.385 19.7659 16.8958C19.1596 16.3636 18.3962 15.8901 17.389 15.8901C16.3819 15.8901 15.6205 16.3636 15.0122 16.8958C14.4562 17.385 13.86 18.0797 13.1993 18.8526L9.51319 23.1456C9.38622 23.2938 9.29053 23.4648 9.23158 23.6488C9.17264 23.8329 9.15159 24.0264 9.16964 24.2184C9.20609 24.6061 9.39959 24.9638 9.70757 25.2129C10.0155 25.462 10.4128 25.5821 10.8119 25.5467C11.211 25.5113 11.5792 25.3233 11.8357 25.0241L15.4553 20.8054C16.2006 19.9346 16.6619 19.4044 17.0386 19.0737C17.1371 18.9809 17.2474 18.9006 17.3669 18.835L17.381 18.8291L17.389 18.8252L17.4112 18.835C17.5314 18.9005 17.6424 18.9807 17.7415 19.0737C18.1182 19.4063 18.5775 19.9346 19.3248 20.8054L19.9129 21.4902C20.5756 22.2632 21.1719 22.9578 21.7278 23.447C22.3341 23.9792 23.0975 24.4527 24.1047 24.4527C25.1118 24.4527 25.8732 23.9792 26.4815 23.447C27.0375 22.9578 27.6337 22.2632 28.2944 21.4902L31.9785 17.1972Z" fill="white"/>
</svg>
