<svg width="48" height="48" viewBox="0 0 48 48" fill="none" xmlns="http://www.w3.org/2000/svg">
<path d="M7.21429 0.375C3.51094 0.375 0.5 3.40195 0.5 7.125V40.875C0.5 44.598 3.51094 47.625 7.21429 47.625H40.7857C44.4891 47.625 47.5 44.598 47.5 40.875V7.125C47.5 3.40195 44.4891 0.375 40.7857 0.375H7.21429ZM38.3833 9.23438L27.4935 21.743L40.3031 38.7656H30.2737L22.4263 28.4402L13.4355 38.7656H8.45223L20.0973 25.3816L7.81228 9.23438H18.0935L25.196 18.6738L33.4 9.23438H38.3833ZM34.4176 35.7703L16.5933 12.0715H13.6243L31.648 35.7703H34.4176Z" fill="black"/>
</svg>
