<svg width="38" height="36" viewBox="0 0 38 36" fill="none" xmlns="http://www.w3.org/2000/svg">
<path d="M3.1875 0.75C2.80625 0.75 2.44062 0.901451 2.17103 1.17103C1.90145 1.44062 1.75 1.80625 1.75 2.1875C1.75 2.56875 1.90145 2.93438 2.17103 3.20397C2.44062 3.47355 2.80625 3.625 3.1875 3.625H5.42569L0.407375 16.7681C0.344703 16.9319 0.312548 17.1058 0.3125 17.2812C0.3125 20.9857 3.07681 23.75 6.78125 23.75C10.4857 23.75 13.25 20.9857 13.25 17.2812C13.25 17.1058 13.2178 16.9319 13.1551 16.7681L8.13969 3.625H17.5625V26.625H8.9375C8.37117 26.625 7.81039 26.7365 7.28718 26.9533C6.76396 27.17 6.28855 27.4876 5.8881 27.8881C5.48765 28.2886 5.16999 28.764 4.95327 29.2872C4.73655 29.8104 4.625 30.3712 4.625 30.9375C4.625 31.5038 4.73655 32.0646 4.95327 32.5878C5.16999 33.111 5.48765 33.5864 5.8881 33.9869C6.28855 34.3874 6.76396 34.705 7.28718 34.9217C7.81039 35.1385 8.37117 35.25 8.9375 35.25H29.0625C30.2062 35.25 31.3031 34.7957 32.1119 33.9869C32.9207 33.1781 33.375 32.0812 33.375 30.9375C33.375 29.7938 32.9207 28.6969 32.1119 27.8881C31.3031 27.0794 30.2062 26.625 29.0625 26.625H20.4375V3.625H29.6864L24.8391 16.7839C24.7803 16.9431 24.7501 17.1115 24.75 17.2812C24.75 20.9857 27.5143 23.75 31.2188 23.75C34.9232 23.75 37.6875 20.9857 37.6875 17.2812C37.6874 17.1115 37.6572 16.9431 37.5984 16.7839L32.7511 3.625H34.8125C35.1937 3.625 35.5594 3.47355 35.829 3.20397C36.0985 2.93438 36.25 2.56875 36.25 2.1875C36.25 1.80625 36.0985 1.44062 35.829 1.17103C35.5594 0.901451 35.1937 0.75 34.8125 0.75H3.1875ZM6.78125 8.13444L9.72525 15.8438H3.83725L6.78125 8.13444ZM28.2489 15.8438L31.2188 7.78369L34.1886 15.8438H28.2489Z" fill="white"/>
</svg>
